<svg width="32" height="32" viewBox="0 0 32 32" fill="none" xmlns="http://www.w3.org/2000/svg">
<g clip-path="url(#clip0_489_1559)">
<path d="M22.8008 8.34722C21.786 6.94765 20.441 5.78615 18.9115 4.98827C17.3301 4.16339 15.5456 3.72733 13.7508 3.72726C10.7665 3.72733 7.96074 4.88952 5.85054 6.99972C3.74016 9.10998 2.5781 11.9157 2.57816 14.8999C2.57816 16.4526 2.90497 17.998 3.52716 19.4103L0.274652 22.6629C0.0301512 22.9074 -0.0599741 23.2665 0.0402762 23.5975C0.140464 23.9284 0.414652 24.1772 0.753653 24.245L9.80031 26.0544C9.86149 26.0666 9.92312 26.0726 9.98418 26.0726C9.98799 26.0726 9.99174 26.0726 9.99556 26.0726C10.5087 26.0671 10.923 25.6494 10.923 25.1351C10.923 25.054 10.9127 24.9753 10.8933 24.9003L9.09424 15.9045C9.02643 15.5655 8.77755 15.2913 8.44661 15.1911C8.11568 15.0909 7.75649 15.181 7.51205 15.4254L4.97023 17.9672C4.62723 16.9886 4.45323 15.9616 4.45323 14.8999C4.45317 12.4164 5.42029 10.0816 7.17636 8.32554C8.93243 6.56953 11.2673 5.60234 13.7507 5.60227C16.721 5.6024 19.5368 7.04003 21.283 9.44798C21.587 9.86711 22.1732 9.96054 22.5923 9.65654C23.0115 9.3526 23.1049 8.76635 22.8008 8.34722Z" fill="#0454CB"/>
<path d="M31.7255 16.5538L27.3905 12.219C27.0245 11.8529 26.4309 11.8529 26.0647 12.219L15.9463 22.3374C15.7704 22.5132 15.6716 22.7517 15.6716 23.0003V27.3352C15.6716 27.853 16.0914 28.2727 16.6091 28.2727H20.9439C21.1925 28.2727 21.431 28.174 21.6068 27.9982L31.7254 17.8796C31.9012 17.7038 31.9999 17.4653 31.9999 17.2166C32.0001 16.9681 31.9013 16.7296 31.7255 16.5538Z" fill="#0454CB"/>
</g>
<defs>
<clipPath id="clip0_489_1559">
<rect width="32" height="32" fill="white"/>
</clipPath>
</defs>
</svg>
