<svg width="32" height="34" viewBox="0 0 32 34" fill="none" xmlns="http://www.w3.org/2000/svg">
<g clip-path="url(#clip0_489_1535)">
<path d="M19.8739 8.8425C19.9177 8.79308 20.1225 8.63164 20.9265 8.63164L23.5628 8.63066C24.4204 8.63066 25.1178 7.93301 25.1178 7.07537V2.46774C25.1178 1.61158 24.4214 0.913925 23.5652 0.912457L19.6494 0.906097C17.2325 0.906097 15.178 1.70331 13.7078 3.21187C12.2443 4.71358 11.4706 6.80996 11.4706 9.274V11.7591H8.47496C7.61733 11.7591 6.91968 12.4567 6.91968 13.3144V18.2767C6.91968 19.1343 7.61733 19.832 8.47496 19.832H11.4706V31.4134C11.4706 32.2711 12.1682 32.9687 13.0258 32.9687H18.1604C19.018 32.9687 19.7157 32.2711 19.7157 31.4134V19.8322H23.3774C24.235 19.8322 24.9324 19.1343 24.9324 18.2772L24.9344 13.3146C24.9344 12.7513 24.6278 12.23 24.1342 11.9543C23.9055 11.8266 23.6393 11.7591 23.3649 11.7591H19.7157V9.79577C19.7157 9.15585 19.8018 8.9242 19.8739 8.8425Z" fill="#0454CB"/>
</g>
<defs>
<clipPath id="clip0_489_1535">
<rect width="32" height="32.0626" fill="white" transform="translate(0 0.968719)"/>
</clipPath>
</defs>
</svg>
