<svg width="32" height="32" viewBox="0 0 32 32" fill="none" xmlns="http://www.w3.org/2000/svg">
<g clip-path="url(#clip0_489_1504)">
<path d="M13.2664 24.3902L9.49578 28.1609C7.93254 29.7241 5.40101 29.7241 3.83909 28.1612C2.27686 26.5989 2.27686 24.0672 3.83878 22.5052L11.3814 14.9626C12.9433 13.4007 15.4751 13.4007 17.037 14.9626C17.5577 15.4833 18.4019 15.4833 18.9226 14.9626C19.4433 14.442 19.4433 13.5977 18.9226 13.077C16.3193 10.4737 12.0991 10.4737 9.49578 13.077L1.95324 20.6196C-0.650104 23.223 -0.650104 27.4431 1.95324 30.0465C4.55627 32.6512 8.77672 32.6512 11.3814 30.0465L15.1521 26.2758C15.6728 25.7551 15.6728 24.9109 15.1521 24.3902C14.6314 23.8695 13.7871 23.8695 13.2664 24.3902Z" fill="#0454CB"/>
<path d="M30.0469 11.3799C32.6502 8.77651 32.6502 4.55638 30.0469 1.95303C27.4436 -0.650247 23.2236 -0.650247 20.619 1.95272L16.0947 6.47698C15.574 6.99766 15.574 7.8419 16.0947 8.36258C16.6154 8.88326 17.4596 8.88326 17.9803 8.36258L22.5042 3.83864C24.0672 2.27665 26.5993 2.27665 28.1612 3.83864C29.7232 5.40055 29.7232 7.93234 28.1612 9.49426L19.8653 17.7902C18.3034 19.3521 15.7716 19.3521 14.2097 17.7902C13.689 17.2695 12.8448 17.2695 12.3241 17.7902C11.8034 18.3108 11.8034 19.1551 12.3241 19.6758C14.9275 22.2791 19.1476 22.2791 21.7509 19.6758L30.0469 11.3799Z" fill="#0454CB"/>
<path d="M24.9434 23.0576C24.4227 22.5369 23.5784 22.5369 23.0577 23.0576C22.5371 23.5783 22.5371 24.4225 23.0577 24.9432L27.0564 28.9419C27.5771 29.4625 28.4213 29.4625 28.942 28.9419C29.4627 28.4212 29.4627 27.5769 28.942 27.0563L24.9434 23.0576Z" fill="#0454CB"/>
<path d="M7.05917 8.94447C7.57985 9.46515 8.42409 9.46515 8.94477 8.94447C9.46545 8.42378 9.46545 7.57954 8.94477 7.05886L4.94213 3.05622C4.42145 2.53554 3.57721 2.53554 3.05653 3.05622C2.53585 3.5769 2.53585 4.42114 3.05653 4.94182L7.05917 8.94447Z" fill="#0454CB"/>
<path d="M30.6665 19.9998H26.6665C25.9302 19.9998 25.3333 20.5967 25.3333 21.3331C25.3333 22.0694 25.9302 22.6664 26.6665 22.6664H30.6665C31.4029 22.6664 31.9998 22.0694 31.9998 21.3331C31.9998 20.5967 31.4029 19.9998 30.6665 19.9998Z" fill="#0454CB"/>
<path d="M10.6668 6.66661C11.4032 6.66661 12.0001 6.06968 12.0001 5.33331V1.33336C12.0001 0.596931 11.4032 0 10.6668 0C9.93043 0 9.3335 0.596931 9.3335 1.3333V5.33325C9.33343 6.06962 9.93043 6.66661 10.6668 6.66661Z" fill="#0454CB"/>
<path d="M1.33354 11.9999H5.3335C6.06986 11.9999 6.66679 11.4029 6.66679 10.6666C6.66679 9.9302 6.06986 9.33327 5.3335 9.33327H1.33354C0.597175 9.33327 0.000244141 9.9302 0.000244141 10.6666C0.000244141 11.4029 0.597175 11.9999 1.33354 11.9999Z" fill="#0454CB"/>
<path d="M21.3333 25.333C20.5969 25.333 20 25.93 20 26.6663V30.6663C20 31.4026 20.5969 31.9996 21.3333 31.9996C22.0697 31.9996 22.6666 31.4026 22.6666 30.6663V26.6663C22.6667 25.93 22.0697 25.333 21.3333 25.333Z" fill="#0454CB"/>
</g>
<defs>
<clipPath id="clip0_489_1504">
<rect width="32" height="32" fill="white"/>
</clipPath>
</defs>
</svg>
