<svg width="32" height="22" viewBox="0 0 32 22" fill="none" xmlns="http://www.w3.org/2000/svg">
<path d="M31 6.36987H18.5896L23.2103 2.17568C23.6192 1.80456 23.6499 1.17206 23.2786 0.763122C22.9076 0.354247 22.2751 0.323497 21.866 0.694872L16 6.01937L10.134 0.694809C9.72494 0.323497 9.0925 0.35431 8.72144 0.763059C8.35025 1.17206 8.38081 1.80443 8.78969 2.17562L13.4104 6.36981H1C0.44775 6.36981 0 6.81755 0 7.3698C0 7.92205 0.44775 8.3698 1 8.3698H2.58763L4.63119 20.7279C4.711 21.2106 5.12844 21.5647 5.61781 21.5647H26.3824C26.8717 21.5647 27.2892 21.2106 27.3691 20.7279L29.4126 8.3698H31C31.5522 8.3698 32 7.92205 32 7.3698C32 6.81755 31.5522 6.36987 31 6.36987ZM19.8213 17.3167H12.1788C11.6265 17.3167 11.1788 16.8689 11.1788 16.3167C11.1788 15.7644 11.6265 15.3167 12.1788 15.3167H19.8214C20.3736 15.3167 20.8214 15.7644 20.8214 16.3167C20.8213 16.8689 20.3736 17.3167 19.8213 17.3167ZM19.8213 13.9514H12.1788C11.6265 13.9514 11.1788 13.5037 11.1788 12.9514C11.1788 12.3992 11.6265 11.9514 12.1788 11.9514H19.8214C20.3736 11.9514 20.8214 12.3992 20.8214 12.9514C20.8214 13.5037 20.3736 13.9514 19.8213 13.9514Z" fill="#0454CB"/>
</svg>
