<svg width="32" height="32" viewBox="0 0 32 32" fill="none" xmlns="http://www.w3.org/2000/svg">
<path fill-rule="evenodd" clip-rule="evenodd" d="M23.064 13.3267L14.488 21.9027C14.1753 22.2147 14 22.6387 14 23.0807V25.3333C14 25.7013 14.2987 26 14.6667 26H16.9193C17.3613 26 17.7853 25.8247 18.0973 25.512L26.6733 16.936L23.064 13.3267ZM29.3333 14.276L29.724 14.6667L24.862 19.5287C24.602 19.7887 24.602 20.2113 24.862 20.4713C25.122 20.7313 25.5447 20.7313 25.8047 20.4713L31.138 15.138C31.3987 14.878 31.3987 14.4553 31.138 14.1953L30.276 13.3333L30.8713 12.738C31.522 12.0873 31.522 11.032 30.8713 10.3813C30.484 9.994 30.006 9.516 29.6187 9.12867C28.968 8.478 27.9127 8.478 27.262 9.12867L24.0067 12.384L27.616 15.9933L29.3333 14.276Z" fill="#0454CB"/>
<path fill-rule="evenodd" clip-rule="evenodd" d="M24.0001 21.4953L19.0408 26.4547C18.4781 27.0173 17.7147 27.3333 16.9194 27.3333C16.1701 27.3333 14.6667 27.3333 14.6667 27.3333C13.5621 27.3333 12.6667 26.438 12.6667 25.3333C12.6667 25.3333 12.6667 23.83 12.6667 23.0807C12.6667 22.2853 12.9827 21.522 13.5454 20.9593L24.0001 10.5047V2.33333C24.0001 1.41267 23.2541 0.666668 22.3334 0.666668H10.0001V8.33134C10.0001 8.774 9.82409 9.198 9.51075 9.51067C9.19742 9.82333 8.77208 9.99867 8.32942 9.998L0.666748 9.98V29.6667C0.666748 30.5873 1.41275 31.3333 2.33341 31.3333H22.3334C23.2541 31.3333 24.0001 30.5873 24.0001 29.6667V21.4953ZM6.66675 20.6667H10.6667C11.0347 20.6667 11.3334 20.368 11.3334 20C11.3334 19.632 11.0347 19.3333 10.6667 19.3333H6.66675C6.29875 19.3333 6.00008 19.632 6.00008 20C6.00008 20.368 6.29875 20.6667 6.66675 20.6667ZM6.66675 18H13.3334C13.7014 18 14.0001 17.7013 14.0001 17.3333C14.0001 16.9653 13.7014 16.6667 13.3334 16.6667H6.66675C6.29875 16.6667 6.00008 16.9653 6.00008 17.3333C6.00008 17.7013 6.29875 18 6.66675 18ZM6.66675 15.3333H16.0001C16.3681 15.3333 16.6667 15.0347 16.6667 14.6667C16.6667 14.2987 16.3681 14 16.0001 14H6.66675C6.29875 14 6.00008 14.2987 6.00008 14.6667C6.00008 15.0347 6.29875 15.3333 6.66675 15.3333ZM8.66675 1.05733L1.07608 8.64734L8.33274 8.66467C8.42141 8.66467 8.50608 8.62933 8.56875 8.56667C8.63141 8.50467 8.66675 8.41934 8.66675 8.33134V1.05733Z" fill="#0454CB"/>
</svg>
