<svg width="32" height="32" viewBox="0 0 32 32" fill="none" xmlns="http://www.w3.org/2000/svg">
<path d="M29.0544 2H14.9956C13.3687 2 12.05 3.31885 12.05 4.94556V11.8706C12.7932 12.24 13.5962 12.6394 14.3457 13.012L15.4924 10.7175C16.1868 9.33008 17.8794 8.76636 19.2664 9.45947C20.6562 10.155 21.2195 11.843 20.5237 13.2332L18.4795 17.3225C18.5337 17.8638 18.4856 18.4094 18.333 18.9375H19.6826L16.123 28.7256C15.9119 29.3062 16.3201 29.9836 17.0044 29.9836C17.387 29.9836 17.7468 29.7476 17.885 29.3662L21.6775 18.9375H22.3345L26.1655 29.3694C26.3049 29.7488 26.6638 29.9836 27.0461 29.9836C27.6855 29.9836 28.1543 29.345 27.9255 28.7231L24.3318 18.9375H29.0544C30.6812 18.9375 32 17.6187 32 15.9919V4.94556C32 3.31885 30.6812 2 29.0544 2V2ZM27.0457 14.9211H22.8394C22.3218 14.9211 21.9019 14.5012 21.9019 13.9836C21.9019 13.4656 22.3218 13.0461 22.8394 13.0461H27.0457C27.5637 13.0461 27.9832 13.4656 27.9832 13.9836C27.9832 14.5012 27.5637 14.9211 27.0457 14.9211ZM27.0457 11.4062H22.8394C22.3218 11.4062 21.9019 10.9868 21.9019 10.4688C21.9019 9.95117 22.3218 9.53125 22.8394 9.53125H27.0457C27.5637 9.53125 27.9832 9.95117 27.9832 10.4688C27.9832 10.9868 27.5637 11.4062 27.0457 11.4062ZM27.0457 7.89185H17.0044C16.4863 7.89185 16.0669 7.47192 16.0669 6.95435C16.0669 6.43677 16.4863 6.01685 17.0044 6.01685H27.0457C27.5637 6.01685 27.9832 6.43677 27.9832 6.95435C27.9832 7.47192 27.5637 7.89185 27.0457 7.89185Z" fill="#0454CB"/>
<path d="M16.4951 18.5354C16.6646 18.0391 16.6633 17.5205 16.5203 17.0474L18.8469 12.3945C19.0784 11.9314 18.8909 11.3682 18.4277 11.1367C17.9648 10.905 17.4016 11.0928 17.1699 11.5559L15.1855 15.5242C13.9995 14.9336 12.1975 14.0376 10.7458 13.3157C9.39526 12.644 8.4314 12.0417 6.78687 12.0417H5.9585C7.23901 12.0417 8.38184 11.4524 9.12988 10.53C9.70068 9.82812 10.042 8.93359 10.042 7.95874C10.042 5.70312 8.21387 3.875 5.95801 3.875C3.70312 3.875 1.875 5.70312 1.875 7.95874C1.875 9.04199 2.29688 10.0264 2.98511 10.7568C3.72925 11.5481 4.78613 12.0417 5.95776 12.042C4.38696 12.042 2.85132 12.6785 1.74658 13.7861C0.620361 14.9094 0 16.406 0 18.0002V21.0127C0 22.3096 0.842041 23.4131 2.0083 23.8057V29.0459C2.0083 29.5637 2.42798 29.9834 2.9458 29.9834H8.9707C9.48853 29.9834 9.9082 29.5637 9.9082 29.0459V18.5125C10.7971 18.9568 11.9648 19.5405 12.9097 20.0132C13.572 20.3442 14.3459 20.374 15.0361 20.0933C15.7244 19.8101 16.2549 19.2463 16.4915 18.5464C16.4927 18.5427 16.4939 18.5391 16.4951 18.5354Z" fill="#0454CB"/>
</svg>
