<svg width="27" height="27" viewBox="0 0 27 27" fill="none" xmlns="http://www.w3.org/2000/svg">
<path fill-rule="evenodd" clip-rule="evenodd" d="M18.5787 23.2933L17.1641 24.708C16.8014 25.0707 16.2641 25.1933 15.7801 25.0227C15.2961 24.8533 14.9534 24.4213 14.8961 23.912L13.9534 15.4267C13.9094 15.024 14.0494 14.6227 14.3361 14.3373C14.6227 14.0507 15.0241 13.9093 15.4254 13.9547L23.9107 14.8973C24.4201 14.9533 24.8521 15.2973 25.0227 15.7813C25.1921 16.2653 25.0694 16.8027 24.7067 17.1653L23.2921 18.58L25.5281 20.8147C26.8294 22.1173 26.8294 24.228 25.5281 25.5293C24.2267 26.8307 22.1161 26.8307 20.8147 25.5293L18.5787 23.2933ZM11.4987 21.928C6.89742 21.3533 3.33341 17.4227 3.33341 12.6667C3.33341 7.51601 7.51475 3.33334 12.6667 3.33334C17.4227 3.33334 21.3521 6.89866 21.9267 11.4987C22.0187 12.2293 22.6854 12.748 23.4161 12.6573C24.1454 12.5653 24.6641 11.8987 24.5734 11.168C23.8347 5.25199 18.7814 0.666672 12.6667 0.666672C6.04408 0.666672 0.666748 6.044 0.666748 12.6667C0.666748 18.7827 5.25075 23.8347 11.1681 24.5747C11.8974 24.6653 12.5654 24.1467 12.6561 23.416C12.7467 22.6867 12.2281 22.0187 11.4987 21.928ZM20.8601 17.2413L16.7881 16.7893L17.2401 20.86L17.6361 20.4653C18.1561 19.944 19.0001 19.944 19.5214 20.4653C19.5214 20.4653 21.3508 22.2933 22.7001 23.644C22.9601 23.904 23.3827 23.904 23.6427 23.644C23.9027 23.3827 23.9027 22.9613 23.6427 22.7013C22.2934 21.3507 20.4641 19.5227 20.4641 19.5227C19.9441 19.0013 19.9441 18.1573 20.4641 17.636L20.8601 17.2413ZM11.6654 16.5413C9.94142 16.096 8.66675 14.5293 8.66675 12.6667C8.66675 10.46 10.4587 8.66667 12.6667 8.66667C14.5281 8.66667 16.0961 9.94267 16.5401 11.6667C16.7241 12.3787 17.4521 12.8093 18.1641 12.6253C18.8774 12.4413 19.3067 11.7133 19.1227 11.0013C18.3814 8.12666 15.7707 6.00001 12.6667 6.00001C8.98675 6.00001 6.00008 8.988 6.00008 12.6667C6.00008 15.7707 8.12542 18.3827 11.0001 19.124C11.7134 19.3067 12.4401 18.8773 12.6241 18.1653C12.8081 17.452 12.3787 16.7253 11.6654 16.5413Z" fill="#0454CB"/>
</svg>
