<svg width="32" height="32" viewBox="0 0 32 32" fill="none" xmlns="http://www.w3.org/2000/svg">
<g clip-path="url(#clip0_489_1528)">
<path d="M32 16C32 14.9948 31.9057 13.9886 31.7189 13.0117C31.6347 12.5695 31.2474 12.2499 30.7979 12.2499H16.0625C15.5443 12.2499 15.125 12.6693 15.125 13.1874V18.8124C15.125 19.3306 15.5443 19.7499 16.0625 19.7499H23.6229C23.1519 20.7036 22.5027 21.531 21.7404 22.2271L27.0391 27.5259C30.0879 24.6212 32 20.5337 32 16Z" fill="#0454CB"/>
<path d="M16.0001 7.5C17.8394 7.5 19.5889 8.08413 21.0593 9.19006C21.4309 9.46931 21.9556 9.43544 22.2851 9.10306L26.286 5.10219C26.4719 4.91631 26.5716 4.66088 26.5598 4.39813C26.5479 4.13538 26.427 3.89 26.2256 3.72062C23.3628 1.32113 19.7308 0 16.0001 0C10.5095 0 5.65894 2.79088 2.7915 7.02825L8.2945 12.5312C9.60738 9.574 12.5613 7.5 16.0001 7.5Z" fill="#0454CB"/>
<path d="M16.0001 32C19.579 32 22.8746 30.8 25.5377 28.8008L20.1395 23.4026C18.9056 24.0974 17.4954 24.5 16.0001 24.5C12.5613 24.5 9.60738 22.426 8.2945 19.4688L2.7915 24.9718C5.65894 29.2091 10.5095 32 16.0001 32Z" fill="#0454CB"/>
<path d="M7.6365 17.3503C7.56469 16.9079 7.5 16.4623 7.5 16C7.5 15.5377 7.56469 15.0921 7.6365 14.6497L1.75375 8.76694C0.64075 10.9407 0 13.3948 0 16C0 18.6052 0.64075 21.0593 1.75381 23.233L7.6365 17.3503Z" fill="#0454CB"/>
</g>
<defs>
<clipPath id="clip0_489_1528">
<rect width="32" height="32" fill="white"/>
</clipPath>
</defs>
</svg>
