<svg width="54" height="54" viewBox="0 0 54 54" fill="none" xmlns="http://www.w3.org/2000/svg">
<circle cx="27" cy="27" r="27" fill="#82C7A5"/>
<g clip-path="url(#clip0_401_2591)">
<rect width="24" height="24" transform="translate(15 15)" fill="#82C7A5"/>
<path d="M27 15C20.3726 15 15 20.3726 15 27C15 32.6275 18.8746 37.3498 24.1013 38.6467V30.6672H21.6269V27H24.1013V25.4198C24.1013 21.3355 25.9498 19.4424 29.9597 19.4424C30.72 19.4424 32.0318 19.5917 32.5685 19.7405V23.0645C32.2853 23.0347 31.7933 23.0198 31.1822 23.0198C29.2147 23.0198 28.4544 23.7653 28.4544 25.703V27H32.3741L31.7006 30.6672H28.4544V38.9122C34.3963 38.1946 39.0005 33.1354 39.0005 27C39 20.3726 33.6274 15 27 15Z" fill="white"/>
</g>
<defs>
<clipPath id="clip0_401_2591">
<rect width="24" height="24" fill="white" transform="translate(15 15)"/>
</clipPath>
</defs>
</svg>
