<svg width="32" height="34" viewBox="0 0 32 34" fill="none" xmlns="http://www.w3.org/2000/svg">
<path d="M31.1609 24.909L26.6858 20.3285C25.0875 18.6926 22.3705 19.347 21.7312 21.4736C21.2517 22.946 19.6535 23.7639 18.2151 23.4367C15.0186 22.6188 10.7033 18.3654 9.90419 14.93C9.42471 13.4576 10.3837 11.8217 11.8221 11.331C13.8998 10.6766 14.5391 7.8956 12.9409 6.2597L8.46576 1.67916C7.18717 0.534029 5.26927 0.534029 4.1505 1.67916L1.11383 4.78738C-1.92284 8.05919 1.43348 16.7295 8.94524 24.4182C16.457 32.107 24.9277 35.7061 28.1242 32.4342L31.1609 29.326C32.2797 28.0172 32.2797 26.0542 31.1609 24.909Z" fill="#0454CB"/>
</svg>
