<svg width="54" height="54" viewBox="0 0 54 54" fill="none" xmlns="http://www.w3.org/2000/svg">
<circle cx="27" cy="27" r="27" fill="#0454CB"/>
<g clip-path="url(#clip0_401_2583)">
<rect width="24" height="24" transform="translate(15 15)" fill="#0454CB"/>
<path d="M27 17.1609C30.2063 17.1609 30.5859 17.175 31.8469 17.2312C33.0188 17.2828 33.6516 17.4797 34.0734 17.6438C34.6313 17.8594 35.0344 18.1219 35.4516 18.5391C35.8734 18.9609 36.1313 19.3594 36.3469 19.9172C36.5109 20.3391 36.7078 20.9766 36.7594 22.1437C36.8156 23.4094 36.8297 23.7891 36.8297 26.9906C36.8297 30.1969 36.8156 30.5766 36.7594 31.8375C36.7078 33.0094 36.5109 33.6422 36.3469 34.0641C36.1313 34.6219 35.8687 35.025 35.4516 35.4422C35.0297 35.8641 34.6313 36.1219 34.0734 36.3375C33.6516 36.5016 33.0141 36.6984 31.8469 36.75C30.5813 36.8062 30.2016 36.8203 27 36.8203C23.7938 36.8203 23.4141 36.8062 22.1531 36.75C20.9813 36.6984 20.3484 36.5016 19.9266 36.3375C19.3688 36.1219 18.9656 35.8594 18.5484 35.4422C18.1266 35.0203 17.8688 34.6219 17.6531 34.0641C17.4891 33.6422 17.2922 33.0047 17.2406 31.8375C17.1844 30.5719 17.1703 30.1922 17.1703 26.9906C17.1703 23.7844 17.1844 23.4047 17.2406 22.1437C17.2922 20.9719 17.4891 20.3391 17.6531 19.9172C17.8688 19.3594 18.1313 18.9562 18.5484 18.5391C18.9703 18.1172 19.3688 17.8594 19.9266 17.6438C20.3484 17.4797 20.9859 17.2828 22.1531 17.2312C23.4141 17.175 23.7938 17.1609 27 17.1609ZM27 15C23.7422 15 23.3344 15.0141 22.0547 15.0703C20.7797 15.1266 19.9031 15.3328 19.1438 15.6281C18.3516 15.9375 17.6813 16.3453 17.0156 17.0156C16.3453 17.6813 15.9375 18.3516 15.6281 19.1391C15.3328 19.9031 15.1266 20.775 15.0703 22.05C15.0141 23.3344 15 23.7422 15 27C15 30.2578 15.0141 30.6656 15.0703 31.9453C15.1266 33.2203 15.3328 34.0969 15.6281 34.8563C15.9375 35.6484 16.3453 36.3188 17.0156 36.9844C17.6813 37.65 18.3516 38.0625 19.1391 38.3672C19.9031 38.6625 20.775 38.8687 22.05 38.925C23.3297 38.9812 23.7375 38.9953 26.9953 38.9953C30.2531 38.9953 30.6609 38.9812 31.9406 38.925C33.2156 38.8687 34.0922 38.6625 34.8516 38.3672C35.6391 38.0625 36.3094 37.65 36.975 36.9844C37.6406 36.3188 38.0531 35.6484 38.3578 34.8609C38.6531 34.0969 38.8594 33.225 38.9156 31.95C38.9719 30.6703 38.9859 30.2625 38.9859 27.0047C38.9859 23.7469 38.9719 23.3391 38.9156 22.0594C38.8594 20.7844 38.6531 19.9078 38.3578 19.1484C38.0625 18.3516 37.6547 17.6813 36.9844 17.0156C36.3188 16.35 35.6484 15.9375 34.8609 15.6328C34.0969 15.3375 33.225 15.1313 31.95 15.075C30.6656 15.0141 30.2578 15 27 15Z" fill="white"/>
<path d="M27 20.8359C23.5969 20.8359 20.8359 23.5969 20.8359 27C20.8359 30.4031 23.5969 33.1641 27 33.1641C30.4031 33.1641 33.1641 30.4031 33.1641 27C33.1641 23.5969 30.4031 20.8359 27 20.8359ZM27 30.9984C24.7922 30.9984 23.0016 29.2078 23.0016 27C23.0016 24.7922 24.7922 23.0016 27 23.0016C29.2078 23.0016 30.9984 24.7922 30.9984 27C30.9984 29.2078 29.2078 30.9984 27 30.9984Z" fill="white"/>
<path d="M34.8469 20.5924C34.8469 21.3893 34.2 22.0314 33.4078 22.0314C32.6109 22.0314 31.9688 21.3846 31.9688 20.5924C31.9688 19.7955 32.6156 19.1533 33.4078 19.1533C34.2 19.1533 34.8469 19.8002 34.8469 20.5924Z" fill="white"/>
</g>
<defs>
<clipPath id="clip0_401_2583">
<rect width="24" height="24" fill="white" transform="translate(15 15)"/>
</clipPath>
</defs>
</svg>
