<svg width="54" height="54" viewBox="0 0 54 54" fill="none" xmlns="http://www.w3.org/2000/svg">
<circle cx="27" cy="27" r="27" fill="#0454CB"/>
<g clip-path="url(#clip0_401_2585)">
<rect width="24" height="24" transform="translate(15 15)" fill="#0454CB"/>
<path d="M37.2234 15H16.7719C15.7922 15 15 15.7734 15 16.7297V37.2656C15 38.2219 15.7922 39 16.7719 39H37.2234C38.2031 39 39 38.2219 39 37.2703V16.7297C39 15.7734 38.2031 15 37.2234 15ZM22.1203 35.4516H18.5578V23.9953H22.1203V35.4516ZM20.3391 22.4344C19.1953 22.4344 18.2719 21.5109 18.2719 20.3719C18.2719 19.2328 19.1953 18.3094 20.3391 18.3094C21.4781 18.3094 22.4016 19.2328 22.4016 20.3719C22.4016 21.5062 21.4781 22.4344 20.3391 22.4344ZM35.4516 35.4516H31.8937V29.8828C31.8937 28.5562 31.8703 26.8453 30.0422 26.8453C28.1906 26.8453 27.9094 28.2937 27.9094 29.7891V35.4516H24.3563V23.9953H27.7687V25.5609H27.8156C28.2891 24.6609 29.4516 23.7094 31.1813 23.7094C34.7859 23.7094 35.4516 26.0813 35.4516 29.1656V35.4516Z" fill="white"/>
</g>
<defs>
<clipPath id="clip0_401_2585">
<rect width="24" height="24" fill="white" transform="translate(15 15)"/>
</clipPath>
</defs>
</svg>
