<svg width="54" height="54" viewBox="0 0 54 54" fill="none" xmlns="http://www.w3.org/2000/svg">
<circle cx="27" cy="27" r="27" fill="#0454CB"/>
<g clip-path="url(#clip0_401_2589)">
<rect width="24" height="24" transform="translate(15 15)" fill="#0454CB"/>
<path d="M27 15C20.3719 15 15 20.3719 15 27C15 32.0859 18.1641 36.4266 22.6266 38.175C22.5234 37.2234 22.425 35.7703 22.6688 34.7344C22.8891 33.7969 24.075 28.7719 24.075 28.7719C24.075 28.7719 23.7141 28.0547 23.7141 26.9906C23.7141 25.3219 24.6797 24.075 25.8844 24.075C26.9062 24.075 27.4031 24.8438 27.4031 25.7672C27.4031 26.7984 26.7469 28.3359 26.4094 29.7609C26.1281 30.9562 27.0094 31.9313 28.1859 31.9313C30.3187 31.9313 31.9594 29.6812 31.9594 26.4375C31.9594 23.5641 29.8969 21.5531 26.9484 21.5531C23.5359 21.5531 21.5297 24.1125 21.5297 26.7609C21.5297 27.7922 21.9281 28.8984 22.425 29.4984C22.5234 29.6156 22.5375 29.7234 22.5094 29.8406C22.4203 30.2203 22.2141 31.0359 22.1766 31.2C22.125 31.4203 22.0031 31.4672 21.7734 31.3594C20.2734 30.6609 19.3359 28.4719 19.3359 26.7094C19.3359 22.9219 22.0875 19.4484 27.2625 19.4484C31.425 19.4484 34.6594 22.4156 34.6594 26.3813C34.6594 30.5156 32.0531 33.8438 28.4344 33.8438C27.2203 33.8438 26.0766 33.2109 25.6828 32.4656C25.6828 32.4656 25.0828 34.7578 24.9375 35.3203C24.6656 36.3609 23.9344 37.6688 23.4469 38.4656C24.5719 38.8125 25.7625 39 27 39C33.6281 39 39 33.6281 39 27C39 20.3719 33.6281 15 27 15Z" fill="white"/>
</g>
<defs>
<clipPath id="clip0_401_2589">
<rect width="24" height="24" fill="white" transform="translate(15 15)"/>
</clipPath>
</defs>
</svg>
