<svg width="32" height="24" viewBox="0 0 32 24" fill="none" xmlns="http://www.w3.org/2000/svg">
<path fill-rule="evenodd" clip-rule="evenodd" d="M29.0642 0C30.0231 0 30.8745 0.438584 31.4103 1.11697L15.8501 13.5688L0.428568 1.34308C0.944193 0.537623 1.87418 0 2.93578 0H29.0642ZM0 20.7283V3.55262L11.0654 12.3249L0.0228103 21.0792C0.00775874 20.9642 0 20.8471 0 20.7283ZM1.012 22.8443C1.52723 23.2711 2.19988 23.5294 2.93578 23.5294H29.0642C29.6967 23.5294 30.2825 23.3386 30.7618 23.0139L19.0035 13.6045L16.8891 15.2966C16.291 15.7751 15.4199 15.777 14.8196 15.3011L12.6732 13.5996L1.012 22.8443ZM20.6025 12.3249L31.9198 21.3814C31.9722 21.1719 32 20.9532 32 20.7283V3.20421L20.6025 12.3249Z" fill="#0454CB"/>
</svg>
