<svg width="54" height="54" viewBox="0 0 54 54" fill="none" xmlns="http://www.w3.org/2000/svg">
<circle cx="27" cy="27" r="27" fill="#82C7A5"/>
<rect width="24" height="24" transform="translate(15 15)" fill="#82C7A5"/>
<path d="M32.6921 26.1235C32.5887 26.074 32.4837 26.0263 32.3774 25.9806C32.1921 22.5673 30.327 20.6131 27.1952 20.5931C27.181 20.593 27.1669 20.593 27.1528 20.593C25.2795 20.593 23.7216 21.3926 22.7628 22.8476L24.4851 24.0291C25.2014 22.9423 26.3257 22.7106 27.1536 22.7106C27.1631 22.7106 27.1727 22.7106 27.1822 22.7107C28.2134 22.7173 28.9915 23.0171 29.4951 23.6018C29.8616 24.0274 30.1067 24.6156 30.2281 25.358C29.3139 25.2026 28.3251 25.1548 27.2681 25.2154C24.2906 25.3869 22.3764 27.1235 22.505 29.5365C22.5702 30.7605 23.18 31.8135 24.2219 32.5014C25.1028 33.0829 26.2374 33.3673 27.4165 33.3029C28.9738 33.2175 30.1954 32.6234 31.0476 31.537C31.6949 30.712 32.1042 29.6429 32.285 28.2957C33.0271 28.7436 33.5771 29.333 33.8809 30.0415C34.3974 31.2459 34.4275 33.225 32.8126 34.8385C31.3978 36.252 29.697 36.8635 27.1267 36.8824C24.2755 36.8612 22.1192 35.9469 20.7173 34.1646C19.4044 32.4958 18.726 30.0852 18.7006 27C18.726 23.9147 19.4044 21.5042 20.7173 19.8353C22.1192 18.0531 24.2755 17.1388 27.1266 17.1176C29.9985 17.1389 32.1924 18.0577 33.648 19.8485C34.3618 20.7267 34.8999 21.8311 35.2546 23.1188L37.273 22.5803C36.843 20.9953 36.1664 19.6295 35.2456 18.4968C33.3795 16.2008 30.6503 15.0244 27.1337 15H27.1196C23.6102 15.0243 20.9115 16.2052 19.0985 18.5099C17.4852 20.5608 16.653 23.4145 16.6251 26.9916L16.625 27L16.6251 27.0084C16.653 30.5855 17.4852 33.4393 19.0985 35.4901C20.9115 37.7948 23.6102 38.9757 27.1196 39H27.1337C30.2538 38.9784 32.453 38.1615 34.2647 36.3514C36.6351 33.9832 36.5637 31.0149 35.7825 29.1926C35.222 27.8859 34.1534 26.8245 32.6921 26.1235ZM27.3051 31.1884C26.0001 31.2619 24.6443 30.6761 24.5774 29.4215C24.5279 28.4913 25.2395 27.4532 27.3851 27.3296C27.6309 27.3154 27.872 27.3085 28.1089 27.3085C28.8883 27.3085 29.6174 27.3842 30.2802 27.5291C30.033 30.6169 28.5828 31.1182 27.3051 31.1884Z" fill="white"/>
</svg>
