<svg width="54" height="54" viewBox="0 0 54 54" fill="none" xmlns="http://www.w3.org/2000/svg">
<circle cx="27" cy="27" r="27" fill="#0454CB"/>
<rect width="24" height="24" transform="translate(15 15)" fill="#0454CB"/>
<path d="M32.0725 15H28.0278V31.3478C28.0278 33.2957 26.4722 34.8957 24.5363 34.8957C22.6003 34.8957 21.0447 33.2957 21.0447 31.3478C21.0447 29.4348 22.5658 27.8695 24.4326 27.8V23.6957C20.3187 23.7652 17 27.1391 17 31.3478C17 35.5913 20.3879 39 24.5708 39C28.7538 39 32.1416 35.5565 32.1416 31.3478V22.9652C33.6627 24.0783 35.5295 24.7391 37.5 24.7739V20.6696C34.4579 20.5652 32.0725 18.0609 32.0725 15Z" fill="white"/>
</svg>
