<svg width="32" height="32" viewBox="0 0 32 32" fill="none" xmlns="http://www.w3.org/2000/svg">
<g clip-path="url(#clip0_457_1612)">
<path d="M25.4736 5.47984C23.5316 2.12834 20.0821 0.0807813 16.2461 0.00253125C16.0824 -0.00084375 15.9176 -0.00084375 15.7538 0.00253125C11.9179 0.0807813 8.46839 2.12834 6.52626 5.47984C4.54114 8.90559 4.48683 13.0206 6.38095 16.4875L14.3161 31.0117C14.3197 31.0182 14.3233 31.0246 14.327 31.031C14.6761 31.6378 15.3015 32 16.0001 32C16.6986 32 17.324 31.6377 17.6731 31.031C17.6768 31.0246 17.6803 31.0182 17.6839 31.0117L25.6191 16.4875C27.5131 13.0206 27.4588 8.90559 25.4736 5.47984ZM16 14.5C13.5186 14.5 11.5 12.4813 11.5 10C11.5 7.51872 13.5186 5.50003 16 5.50003C18.4813 5.50003 20.5 7.51872 20.5 10C20.5 12.4813 18.4813 14.5 16 14.5Z" fill="#0454CB"/>
</g>
<defs>
<clipPath id="clip0_457_1612">
<rect width="32" height="32" fill="white"/>
</clipPath>
</defs>
</svg>
