<svg width="32" height="32" viewBox="0 0 32 32" fill="none" xmlns="http://www.w3.org/2000/svg">
<g clip-path="url(#clip0_489_1543)">
<path d="M20.9548 16.1337C20.811 17.308 20.2829 18.4274 19.4129 19.2974C18.3554 20.3556 16.8772 20.8537 15.021 20.7787C13.7191 20.7268 13.1178 21.0674 13.0191 21.1293C12.6203 21.4787 12.1141 21.6699 11.5797 21.6699C10.9953 21.6699 10.446 21.4424 10.0328 21.0293C9.3197 20.3162 9.20469 19.2162 9.69157 18.378L10.0409 17.8243C10.1597 17.5349 10.3203 16.9637 10.2828 16.0405C10.2085 14.1836 10.7066 12.7061 11.7641 11.6486C12.6303 10.783 13.7378 10.2467 14.9354 10.1036C15.1047 9.28924 15.4716 8.52736 16.001 7.88736H3.43966C2.05965 7.88736 0.936523 9.00987 0.936523 10.3899V22.8018H27.0492V10.4774L23.876 14.3661C23.1298 15.278 22.0935 15.8987 20.9548 16.1337Z" fill="#0454CB"/>
<path d="M0.936586 25.4768C0.936586 26.8562 2.05972 27.9787 3.43973 27.9787H10.5535V30.125H8.9767C8.45894 30.125 8.03919 30.5447 8.03919 31.0625C8.03919 31.5802 8.45894 32 8.9767 32H19.0088C19.5266 32 19.9463 31.5802 19.9463 31.0625C19.9463 30.5447 19.5266 30.125 19.0088 30.125H17.4321V27.9787H24.546C25.926 27.9787 27.0492 26.8562 27.0492 25.4768V24.6768H0.936523V25.4768H0.936586Z" fill="#0454CB"/>
<path d="M11.3813 19.2397C11.3812 19.2397 11.3807 19.2403 11.3806 19.2404C11.3805 19.2405 11.3807 19.2403 11.3806 19.2404C11.3805 19.2406 11.3799 19.2412 11.3797 19.2413C11.3797 19.2414 11.3798 19.2412 11.3797 19.2413C11.3797 19.2414 11.3791 19.2419 11.379 19.2421C11.3789 19.2421 11.3792 19.2419 11.379 19.2421L11.3783 19.2428C11.2598 19.3651 11.261 19.5603 11.3818 19.6812C11.4428 19.7422 11.5228 19.7727 11.6028 19.7727C11.682 19.7727 11.7613 19.7427 11.8221 19.6828C11.8412 19.6647 12.7879 18.7895 15.12 18.8832C16.4321 18.9361 17.4381 18.6218 18.1104 17.9496C19.4881 16.5719 19.4881 14.3303 18.1104 12.9526C17.443 12.2852 16.5557 11.9176 15.6119 11.9176C14.6681 11.9176 13.7808 12.2851 13.1134 12.9526C12.4412 13.6248 12.127 14.6309 12.1797 15.9429C12.274 18.2877 11.3885 19.2323 11.3813 19.2397Z" fill="#0454CB"/>
<path d="M20.8736 14.2061C21.4849 14.023 22.0355 13.6605 22.4461 13.1586L23.644 11.6906L19.3768 7.42336L17.9149 8.61736C17.4118 9.02736 17.048 9.57736 16.8643 10.1886C17.8305 10.4155 18.7168 10.9074 19.4361 11.6267C20.1724 12.363 20.6518 13.2599 20.8736 14.2061Z" fill="#0454CB"/>
<path d="M30.5004 0.562938C29.8023 -0.135187 28.6986 -0.190812 27.9336 0.434188L20.8362 6.23125L24.8354 10.2304L30.6298 3.12925C31.2542 2.36481 31.1986 1.26106 30.5004 0.562938Z" fill="#0454CB"/>
</g>
<defs>
<clipPath id="clip0_489_1543">
<rect width="32" height="32" fill="white"/>
</clipPath>
</defs>
</svg>
