<svg width="54" height="54" viewBox="0 0 54 54" fill="none" xmlns="http://www.w3.org/2000/svg">
<circle cx="27" cy="27" r="27" fill="#82C7A5"/>
<rect width="24" height="24" transform="translate(15 15)" fill="#82C7A5"/>
<path d="M38.7609 22.1998C38.7609 22.1998 38.5266 20.5451 37.8047 19.8186C36.8906 18.8623 35.8688 18.8576 35.4 18.8014C32.0438 18.5576 27.0047 18.5576 27.0047 18.5576H26.9953C26.9953 18.5576 21.9563 18.5576 18.6 18.8014C18.1313 18.8576 17.1094 18.8623 16.1953 19.8186C15.4734 20.5451 15.2437 22.1998 15.2437 22.1998C15.2437 22.1998 15 24.1451 15 26.0857V27.9045C15 29.8451 15.2391 31.7904 15.2391 31.7904C15.2391 31.7904 15.4734 33.4451 16.1906 34.1717C17.1047 35.1279 18.3047 35.0951 18.8391 35.1982C20.7609 35.3811 27 35.4373 27 35.4373C27 35.4373 32.0438 35.4279 35.4 35.1889C35.8688 35.1326 36.8906 35.1279 37.8047 34.1717C38.5266 33.4451 38.7609 31.7904 38.7609 31.7904C38.7609 31.7904 39 29.8498 39 27.9045V26.0857C39 24.1451 38.7609 22.1998 38.7609 22.1998ZM24.5203 30.1123V23.367L31.0031 26.7514L24.5203 30.1123Z" fill="white"/>
</svg>
